<?xml version="1.0" standalone="no"?>
<!DOCTYPE svg PUBLIC "-//W3C//DTD SVG 20010904//EN"
 "http://www.w3.org/TR/2001/REC-SVG-20010904/DTD/svg10.dtd">
<svg version="1.0" xmlns="http://www.w3.org/2000/svg"
 width="952.000000pt" height="952.000000pt" viewBox="0 0 952.000000 952.000000"
 preserveAspectRatio="xMidYMid meet">
<metadata>
Created by potrace 1.14, written by Peter Selinger 2001-2017
</metadata>
<g transform="translate(0.000000,952.000000) scale(0.100000,-0.100000)"
fill="#000000" stroke="none">
<path d="M4515 9493 c-41 -3 -247 -31 -282 -37 -11 -3 -38 -7 -59 -11 -84 -13
-359 -86 -424 -112 -8 -4 -17 -7 -20 -8 -3 -1 -18 -7 -33 -13 -16 -7 -33 -12
-38 -12 -5 0 -17 -4 -27 -10 -9 -5 -51 -23 -92 -41 -215 -91 -500 -260 -672
-398 -243 -195 -476 -506 -616 -821 -41 -93 -112 -312 -126 -390 -2 -14 -7
-37 -11 -51 -13 -53 -12 -95 6 -143 35 -94 104 -141 219 -151 41 -3 89 -8 105
-10 17 -2 71 -6 120 -10 50 -4 104 -9 120 -11 17 -2 64 -6 105 -9 41 -3 93 -7
115 -9 22 -2 76 -7 120 -10 44 -4 94 -9 110 -11 78 -10 216 -19 275 -19 112 1
208 71 231 169 43 184 139 356 279 496 136 137 279 220 466 268 121 32 205 40
364 36 124 -3 159 -8 245 -33 108 -32 190 -72 271 -133 123 -94 225 -236 275
-384 15 -46 13 -39 23 -87 9 -41 14 -837 6 -839 -3 0 -54 -2 -115 -4 -116 -3
-362 -14 -430 -19 -99 -8 -212 -18 -235 -21 -14 -2 -52 -7 -85 -10 -33 -3 -71
-8 -85 -10 -14 -2 -47 -6 -75 -9 -27 -4 -61 -8 -75 -11 -14 -2 -43 -7 -65 -10
-43 -6 -68 -10 -160 -26 -97 -16 -355 -69 -420 -86 -33 -8 -71 -17 -85 -19
-14 -3 -34 -8 -45 -11 -11 -4 -27 -8 -35 -9 -50 -9 -296 -80 -350 -101 -90
-36 -250 -117 -345 -176 -383 -237 -690 -574 -885 -972 -125 -255 -179 -440
-209 -715 -9 -84 -7 -373 4 -435 28 -175 39 -224 65 -317 119 -424 395 -835
695 -1033 281 -186 593 -299 940 -342 108 -13 487 -4 515 12 3 2 30 6 60 10
30 4 57 8 60 10 3 2 27 6 53 9 185 25 566 156 770 265 143 76 171 94 286 182
175 133 280 226 414 366 33 35 62 63 66 63 3 0 22 -24 41 -53 165 -248 588
-730 685 -780 45 -23 135 -31 189 -16 29 8 128 75 146 99 3 4 59 52 125 107
154 128 387 324 401 338 7 5 95 80 198 165 202 169 209 179 208 279 -1 76 -8
92 -116 249 -51 76 -127 187 -168 247 -41 61 -85 128 -96 151 -24 48 -99 266
-107 314 -3 19 -7 36 -9 39 -2 3 -7 26 -10 51 -3 25 -9 56 -13 70 -4 14 -9
687 -10 1495 -3 1689 -2 1595 -19 1717 -58 420 -239 776 -549 1081 -149 147
-543 372 -830 474 -38 14 -79 29 -90 33 -55 24 -358 100 -460 116 -27 4 -52 8
-55 9 -3 1 -36 5 -75 9 -38 5 -79 11 -90 13 -24 6 -523 11 -580 6z m1050
-4238 c0 -501 0 -512 -23 -599 -98 -378 -295 -689 -582 -918 -163 -131 -239
-158 -455 -163 -164 -5 -280 21 -415 92 -154 82 -255 180 -316 308 -39 81 -93
253 -109 345 -11 59 -14 344 -5 386 5 21 11 53 13 69 32 206 132 390 307 565
195 195 460 334 705 370 44 6 91 13 105 15 14 2 57 7 95 10 39 3 84 8 100 10
17 2 84 7 150 10 66 4 121 7 122 8 1 1 70 2 155 2 l153 0 0 -510z"/>
<path d="M8459 2366 c-2 -2 -37 -7 -77 -11 -41 -4 -87 -11 -103 -15 -16 -5
-29 -7 -29 -5 0 3 -10 1 -23 -4 -13 -5 -39 -12 -58 -15 -195 -31 -653 -240
-675 -308 -8 -27 21 -68 50 -68 13 0 48 5 77 11 63 12 82 15 169 24 36 4 73 9
83 11 142 26 655 21 759 -6 76 -21 150 -116 150 -194 0 -47 -48 -253 -98 -421
-54 -181 -119 -359 -185 -509 -33 -73 -48 -119 -44 -134 8 -32 49 -46 83 -28
30 16 196 176 255 246 66 79 177 252 224 350 25 52 49 103 54 113 19 37 83
247 95 312 11 63 14 82 19 119 52 363 -14 484 -285 520 -92 12 -431 21 -441
12z"/>
<path d="M394 2289 c-29 -14 -54 -61 -54 -100 0 -34 32 -76 165 -219 727 -779
1576 -1339 2575 -1697 298 -106 577 -180 790 -208 30 -4 62 -9 71 -10 9 -2 40
-6 70 -10 30 -3 65 -8 79 -10 32 -6 136 -15 270 -25 103 -7 731 -5 800 3 19 3
71 8 115 11 44 4 87 9 95 11 8 2 40 6 71 10 31 3 67 8 80 10 13 3 44 7 69 10
25 3 52 7 60 10 8 2 35 7 60 10 177 25 507 108 775 195 238 77 649 248 727
302 14 10 29 18 33 18 12 0 284 159 388 227 258 168 555 409 749 608 27 27 51
60 55 73 10 42 -4 104 -31 131 -24 24 -33 26 -109 26 l-82 0 -150 -76 c-351
-176 -733 -333 -1130 -462 -225 -74 -475 -146 -558 -163 -10 -2 -27 -6 -37 -9
-10 -3 -27 -7 -37 -9 -10 -2 -58 -14 -108 -26 -49 -12 -101 -24 -115 -26 -14
-3 -77 -15 -140 -29 -63 -13 -133 -26 -155 -29 -22 -3 -49 -7 -60 -10 -34 -7
-173 -19 -385 -33 -224 -15 -908 -8 -1065 12 -16 2 -66 6 -110 10 -44 3 -93 8
-110 10 -16 2 -52 7 -80 10 -141 16 -437 62 -545 85 -25 5 -60 12 -79 15 -19
3 -37 7 -40 9 -3 2 -22 7 -41 10 -345 56 -1158 381 -1760 704 -315 168 -752
436 -970 595 -66 48 -102 57 -146 36z"/>
</g>
</svg>
